<svg
        width="8"
        height="8"
        viewBox="0 0 8 8"
        fill="none"
        xmlns="http://www.w3.org/2000/svg"
>
    <g opacity="0.4">
        <path
                d="M4.39328 3.6L7.08544 0.907727C7.15949 0.833615 7.20035 0.73474 7.20047 0.629309C7.20047 0.523819 7.15961 0.424828 7.08544 0.350833L6.84952 0.114973C6.77535 0.0406856 6.67647 0 6.57093 0C6.46555 0 6.36668 0.0406856 6.29251 0.114973L3.60035 2.80707L0.908079 0.114973C0.834025 0.0406856 0.735092 0 0.629602 0C0.524229 0 0.425296 0.0406856 0.351242 0.114973L0.115208 0.350833C-0.0384025 0.504443 -0.0384025 0.754293 0.115208 0.907727L2.80742 3.6L0.115208 6.29216C0.0410954 6.36638 0.000292702 6.46526 0.000292702 6.57069C0.000292702 6.67612 0.0410954 6.775 0.115208 6.84917L0.351184 7.08503C0.425237 7.15926 0.524229 7.2 0.629543 7.2C0.735033 7.2 0.833966 7.15926 0.90802 7.08503L3.60029 4.39287L6.29245 7.08503C6.36662 7.15926 6.46549 7.2 6.57087 7.2H6.57098C6.67642 7.2 6.77529 7.15926 6.84946 7.08503L7.08538 6.84917C7.15943 6.77505 7.20029 6.67612 7.20029 6.57069C7.20029 6.46526 7.15943 6.36638 7.08538 6.29221L4.39328 3.6Z"
                fill="white"
        />
    </g>
</svg>